<?xml version="1.0" standalone="no"?>
<!DOCTYPE svg PUBLIC "-//W3C//DTD SVG 1.1//EN" "http://www.w3.org/Graphics/SVG/1.1/DTD/svg11.dtd" >
<svg xmlns="http://www.w3.org/2000/svg">
<metadata>
Created by FontForge 20120731 at Mon Oct 10 16:08:05 2016
 By admin
</metadata>
<defs>
<font id="iconfont" horiz-adv-x="1024" >
  <font-face 
    font-family="iconfont"
    font-weight="500"
    font-stretch="normal"
    units-per-em="1024"
    panose-1="2 0 6 3 0 0 0 0 0 0"
    ascent="896"
    descent="-128"
    x-height="792"
    bbox="0 -192 1348 896"
    underline-thickness="50"
    underline-position="-100"
    unicode-range="U+0078-E642"
  />
<missing-glyph horiz-adv-x="374" 
d="M34 0v682h272v-682h-272zM68 34h204v614h-204v-614z" />
    <glyph glyph-name=".notdef" horiz-adv-x="374" 
d="M34 0v682h272v-682h-272zM68 34h204v614h-204v-614z" />
    <glyph glyph-name=".null" horiz-adv-x="0" 
 />
    <glyph glyph-name="nonmarkingreturn" horiz-adv-x="341" 
 />
    <glyph glyph-name="x" unicode="x" horiz-adv-x="1001" 
d="M281 543q-27 -1 -53 -1h-83q-18 0 -36.5 -6t-32.5 -18.5t-23 -32t-9 -45.5v-76h912v41q0 16 -0.5 30t-0.5 18q0 13 -5 29t-17 29.5t-31.5 22.5t-49.5 9h-133v-97h-438v97zM955 310v-52q0 -23 0.5 -52t0.5 -58t-10.5 -47.5t-26 -30t-33 -16t-31.5 -4.5q-14 -1 -29.5 -0.5
t-29.5 0.5h-32l-45 128h-439l-44 -128h-29h-34q-20 0 -45 1q-25 0 -41 9.5t-25.5 23t-13.5 29.5t-4 30v167h911zM163 247q-12 0 -21 -8.5t-9 -21.5t9 -21.5t21 -8.5q13 0 22 8.5t9 21.5t-9 21.5t-22 8.5zM316 123q-8 -26 -14 -48q-5 -19 -10.5 -37t-7.5 -25t-3 -15t1 -14.5
t9.5 -10.5t21.5 -4h37h67h81h80h64h36q23 0 34 12t2 38q-5 13 -9.5 30.5t-9.5 34.5q-5 19 -11 39h-368zM336 498v228q0 11 2.5 23t10 21.5t20.5 15.5t34 6h188q31 0 51.5 -14.5t20.5 -52.5v-227h-327z" />
    <glyph glyph-name="uniE600" unicode="&#xe600;" 
d="M741 -93h-461q-20 0 -34.5 14.5t-14.5 34.5v856q0 21 14.5 35.5t34.5 14.5h461q21 0 35.5 -14.5t14.5 -35.5v-856q0 -20 -14.5 -34.5t-35.5 -14.5zM511 -44q14 0 23.5 9.5t9.5 23.5t-9.5 23.5t-23.5 9.5t-23.5 -9.5t-9.5 -23.5t9.5 -23.5t23.5 -9.5zM741 763h-461v-692
h461v692z" />
    <glyph glyph-name="uniE601" unicode="&#xe601;" 
d="M992 -111h-960q-13 0 -22.5 9.5t-9.5 22.5q0 46 31 91.5t77 80.5t100 64t98.5 46t73.5 24q3 9 5 27q-61 69 -80 148q-27 15 -41 53q-11 25 -9 59t19 58q-17 160 53 237q62 70 185 70t185 -70q70 -77 53 -237q17 -24 19 -58t-9 -59q-14 -38 -41 -53q-19 -79 -80 -148
q2 -18 5 -27q29 -7 73.5 -24t98.5 -46t100 -64t77 -80.5t31 -91.5q0 -13 -9.5 -22.5t-22.5 -9.5zM71 -47h882q-19 46 -86.5 95.5t-134.5 80t-106 36.5q-16 3 -27 14.5t-16 28.5t-6.5 30.5t-2 27t9.5 22.5q7 7 18 20t31.5 50.5t26.5 73.5q2 12 11 19.5t20 7.5q11 12 14 38
q3 29 -9 39t-11 26q0 4 1 16q14 132 -36 189q-44 48 -138 48t-138 -48q-50 -57 -36 -189q1 -12 1 -16q1 -16 -11 -26t-9 -39q2 -15 7 -25.5t9 -12.5q12 0 19.5 -7.5t9.5 -19.5q6 -36 26.5 -73.5t31.5 -50t18 -20.5q10 -9 9.5 -22.5t-2 -27t-6.5 -30.5t-16 -28.5t-27 -14.5
q-39 -6 -106 -36.5t-134.5 -80t-86.5 -95.5z" />
    <glyph glyph-name="uniE602" unicode="&#xe602;" 
d="M918 77l-207 203q88 95 88 223q0 90 -45 166.5t-123 120.5t-169.5 44t-169 -44t-122.5 -120.5t-45 -166.5t45 -166.5t122.5 -121t169.5 -44.5q119 0 212 74l207 -204q8 -8 19 -8t18.5 7.5t7.5 18t-8 18.5zM462 222q-118 0 -202 82t-84 198.5t84 198.5t202 82t201.5 -82
t83.5 -198.5t-83.5 -198.5t-201.5 -82zM462 222z" />
    <glyph glyph-name="uniE603" unicode="&#xe603;" 
d="M404 497q0 29 26 41.5t49 -7.5q14 -12 14 -37q0 -15 -13 -28t-28 -13q-22 0 -36 14q-12 12 -12 30zM65 397q0 -38 3 -60.5t14 -53.5q14 -41 43 -79t64 -62q1 -1 4.5 -3.5t5.5 -3.5q10 -6 11 -7q27 -14 35 -18q56 -22 103 -22q54 0 92 11q33 10 57 24l25 15l12 8l47 44
q4 5 4 6q-17 4 -35 9q-12 4 -33 12q-27 11 -58 30q-17 10 -39 28l-40 38q-20 20 -6 35q6 6 15 6t15 -7l2 -2q1 -2 2 -3l6 -6q11 -15 45 -41q31 -23 53 -32q1 0 15 -7q30 -13 66 -20q14 -3 19 -3l16 32q40 86 15.5 188.5t-100.5 160.5q-45 36 -93 52q-80 26 -162 6
q-17 -5 -27 -8q-18 -7 -26 -11q-26 -13 -44 -26q-24 -16 -48 -42t-38 -50q-40 -74 -40 -138zM809 661q0 -4 1.5 -7.5t2.5 -5t4 -4.5l4 -4q31 -33 56 -79q38 -68 38 -155q0 -67 -28 -135l-13 -26q-9 -18 -24 -38l-18 -22q-7 -9 -7 -19.5t12.5 -15.5t23.5 5q25 26 47 64
q11 20 15 30q33 78 33 144q0 68 -12 112q-21 73 -64 129l-16 20q-18 21 -24 24q-12 6 -21.5 -1t-9.5 -16zM688 563q0 -3 0.5 -5.5t0.5 -3.5t1 -3l2 -3q0 -1 2.5 -4t3.5 -4q39 -51 47.5 -118.5t-15.5 -126.5q-8 -19 -17 -36q-4 -6 -11 -17q-9 -13 -9 -20q0 -8 6.5 -14
t15.5 -6q3 0 5.5 1t5.5 3.5t5 4.5t4.5 6t3.5 5.5t4 6.5t4 6q4 7 6 10q1 2 3 5.5t3 5.5q31 67 31 133q0 28 -9 69q-12 56 -50 107q-1 1 -3 4t-2.5 4t-3 3t-4 3t-4 1.5t-5.5 0.5q-8 0 -14.5 -5.5t-6.5 -12.5z" />
    <glyph glyph-name="uniE604" unicode="&#xe604;" 
d="M321 671q30 0 62.5 -13.5t53.5 -34.5l75 -75l75 75q48 48 116 48q21 0 62 -14q78 -45 88 -116q11 -78 -41 -130l-300 -300l-294 293q-57 69 -47 137q10 71 88 116q28 14 62 14zM321 739q-45 0 -96 -20q-69 -37 -101.5 -103.5t-21.5 -137.5t62 -121l307 -308q3 0 18 -3
t23 -3q12 0 24 5.5t17 14.5l307 307q51 51 62 120t-21.5 134t-101.5 101q-41 21 -96 21q-45 0 -88.5 -18.5t-75.5 -49.5l-27 -35l-27 28q-32 31 -75.5 49.5t-88.5 18.5z" />
    <glyph glyph-name="uniE605" unicode="&#xe605;" 
d="M72 -68v-60l439 293l439 -293v60l-439 292zM72 896v-906l439 293l439 -293v906h-878z" />
    <glyph glyph-name="uniE606" unicode="&#xe606;" 
d="M834 776h-644q-47 0 -81 -33.5t-34 -81.5v-412q0 -47 34 -81t81 -34h27l-16 -174l263 174h370q47 0 81 34t34 81v412q0 48 -34 81.5t-81 33.5zM876 249q0 -17 -12.5 -29.5t-29.5 -12.5h-392l-154 -102l9 102h-107q-17 0 -29.5 12.5t-12.5 29.5v412q0 18 12.5 30.5
t29.5 12.5h644q17 0 29.5 -12.5t12.5 -30.5v-412zM256 455q0 -24 17 -41.5t41 -17.5t41 17.5t17 41.5t-17 41t-41 17t-41 -17t-17 -41zM457 455q0 -24 17 -41.5t41 -17.5t41 17.5t17 41.5t-17 41t-41 17t-41 -17t-17 -41zM658 455q0 -24 17 -41.5t41 -17.5t41 17.5t17 41.5
t-17 41t-41 17t-41 -17t-17 -41z" />
    <glyph glyph-name="uniE607" unicode="&#xe607;" 
d="M767 0l-254 152l-255 -152v737h509v-737zM258 831h509v-70h-509v70z" />
    <glyph glyph-name="uniE608" unicode="&#xe608;" 
d="M694 818h-567v-864h6l381 178l380 -178h6v864h-206zM840 46l-301 141q-12 6 -25.5 6t-25.5 -6l-300 -141v712h506h146v-712zM840 46zM685 534l-73 10q-7 1 -16 7.5t-12 13.5l-33 70q-13 27 -37.5 27t-37.5 -27l-33 -70q-3 -7 -12 -13.5t-16 -7.5l-72 -10
q-30 -5 -37.5 -28t13.5 -44l53 -54q5 -5 8.5 -15.5t2.5 -17.5l-13 -78q-4 -23 9 -37q9 -11 23 -12.5t29 6.5l66 35q6 4 16.5 4t16.5 -4l66 -35q12 -7 24 -7q18 0 29 13q12 14 8 37l-13 78q-1 7 2.5 17.5t8.5 15.5l54 54q20 21 12.5 44t-36.5 28zM619 444q-14 -14 -21 -36.5
t-4 -41.5l9 -58l-48 26q-17 10 -41.5 10t-41.5 -10l-48 -27l9 59q4 20 -3.5 42t-20.5 36l-42 42l56 8q20 3 38.5 17t27.5 32l25 51l24 -51q9 -18 28 -32t38 -17l56 -9zM619 444z" />
    <glyph glyph-name="uniE609" unicode="&#xe609;" 
d="M507 550q19 0 30.5 11.5t11.5 30.5t-11.5 30.5t-30.5 11.5q-20 0 -35.5 -11.5t-15.5 -30t15.5 -30.5t35.5 -12zM507 550zM271 634q-20 0 -35.5 -11.5t-15.5 -30t15.5 -30.5t35.5 -12q19 0 30.5 11.5t11.5 30.5t-11.5 30.5t-30.5 11.5zM271 634zM1011 281q0 99 -80.5 174
t-195.5 84q1 3 0 5q-22 106 -123.5 177.5t-230.5 71.5q-96 0 -177 -40.5t-128 -110t-47 -151.5q0 -136 131 -233l-30 -91q-3 -9 5 -16q4 -4 10 -4q4 0 7 2l113 56l14 -2q65 -14 102 -14q9 0 25 2.5t18 4.5q31 -77 109 -126t176 -49q36 0 99 16l87 -48q4 -2 8 -2q5 0 9 3
q8 7 5 17l-22 74q116 91 116 200zM410 230q-15 -1 -29 -1q-33 0 -93 12l-18 4q-5 1 -10 -1l-81 -41l21 64q3 10 -6 16q-123 87 -123 208q0 108 90.5 184.5t219.5 76.5q113 0 202.5 -61t109.5 -153q-119 -2 -202.5 -75t-83.5 -176q0 -28 8 -57h-5zM860 107q-8 -6 -5 -16
l14 -45l-57 31q-3 1 -7 1h-3q-62 -16 -93 -16q-106 0 -182 64t-76 154t76 154t182 64q105 0 181.5 -64.5t76.5 -153.5q0 -93 -107 -173v0zM868 99zM616 390q-12 0 -22.5 -10.5t-10.5 -23t10.5 -23t22.5 -10.5q19 0 30.5 10t11.5 23t-11.5 23.5t-30.5 10.5zM616 390zM802 390
q-13 0 -23.5 -10.5t-10.5 -23t10.5 -23t23.5 -10.5q18 0 30 10t12 23t-12 23.5t-30 10.5zM802 390z" />
    <glyph glyph-name="uniE60A" unicode="&#xe60a;" 
d="M512 864q-199 0 -339.5 -140.5t-140.5 -339.5t140.5 -339.5t339.5 -140.5t339.5 140.5t140.5 339.5t-140.5 339.5t-339.5 140.5zM512 -64q-121 0 -224.5 60t-163.5 163.5t-60 224.5t60 224.5t163.5 163.5t224.5 60t224.5 -60t163.5 -163.5t60 -224.5t-60 -224.5
t-163.5 -163.5t-224.5 -60zM336 262l-122 -176l352 244l244 352l-352 -244zM659 531l-121 -173l-173 -121l3 3l118 170zM659 531l-173 -121l55 -55z" />
    <glyph glyph-name="uniE60B" unicode="&#xe60b;" 
d="M928 782h-598q-13 0 -22 -9t-9 -22v-80q0 -13 9 -22.5t22 -9.5h598q13 0 22.5 9.5t9.5 22.5v80q0 13 -9.5 22t-22.5 9zM192 128h-91q-16 0 -27 -11t-11 -27v-67q0 -15 11 -26.5t27 -11.5h91q15 0 26.5 11.5t11.5 26.5v67q0 16 -11.5 27t-26.5 11zM192 455h-91
q-16 0 -27 -11t-11 -27v-67q0 -15 11 -26.5t27 -11.5h91q15 0 26.5 11.5t11.5 26.5v67q0 16 -11.5 27t-26.5 11zM192 782h-91q-16 0 -27 -11t-11 -27v-67q0 -15 11 -26.5t27 -11.5h91q15 0 26.5 11.5t11.5 26.5v67q0 16 -11.5 27t-26.5 11zM928 128h-598q-13 0 -22 -9
t-9 -22v-80q0 -13 9 -22.5t22 -9.5h598q13 0 22.5 9.5t9.5 22.5v80q0 13 -9.5 22t-22.5 9zM928 455h-598q-13 0 -22 -9t-9 -22v-80q0 -13 9 -22.5t22 -9.5h598q13 0 22.5 9.5t9.5 22.5v80q0 13 -9.5 22t-22.5 9z" />
    <glyph glyph-name="uniE60C" unicode="&#xe60c;" 
d="M559 -79h-4q-9 2 -16 8.5t-8 16.5l-56 402l-401 56q-10 1 -17 8t-8 17q-3 21 17 30l866 385q19 8 33 -6t6 -32l-385 -868q-8 -17 -27 -17zM182 447l322 -45q10 -2 16.5 -8.5t8.5 -16.5l45 -323l313 707z" />
    <glyph glyph-name="uniE60D" unicode="&#xe60d;" 
d="M512 873q-100 0 -190.5 -38.5t-156.5 -104t-104.5 -156.5t-38.5 -190.5t38.5 -190.5t104.5 -156.5t156.5 -104.5t190.5 -39t190.5 39t156 104.5t104.5 156.5t39 190.5t-39 190.5t-104.5 156.5t-156 104t-190.5 38.5zM560 346l-324 -215l217 315l319 205zM506 393z
M470 392.5q0 15.5 10.5 26.5t26 11t26 -11t10.5 -26.5t-10.5 -26t-26 -10.5t-26 10.5t-10.5 26z" />
    <glyph glyph-name="uniE60E" unicode="&#xe60e;" 
d="M900 593.5q-11 11.5 -27 11.5t-27 -12l-472 -471l-165 164q-11 11 -27 11t-27 -11t-11 -27t11 -27l192 -192q11 -11 27 -11t27 11l499 499q11 11 11 27t-11 27.5z" />
    <glyph glyph-name="uniE60F" unicode="&#xe60f;" 
d="M541 821h-58q-35 0 -60.5 -25.5t-25.5 -60.5v-702q0 -35 25.5 -60.5t60.5 -25.5h58q35 0 60.5 25.5t25.5 60.5v702q0 35 -25.5 60.5t-60.5 25.5zM567 33q0 -10 -8 -17.5t-18 -7.5h-58q-10 0 -18 7.5t-8 17.5v702q0 10 8 17.5t18 7.5h58q10 0 18 -7.5t8 -17.5v-702z
M219 471h-58q-35 0 -60.5 -25t-25.5 -61v-352q0 -35 25.5 -60.5t60.5 -25.5h58q36 0 61 25.5t25 60.5v352q0 36 -25 61t-61 25zM245 33q0 -10 -7.5 -17.5t-18.5 -7.5h-58q-10 0 -18 7.5t-8 17.5v352q0 11 8 18.5t18 7.5h58q11 0 18.5 -7.5t7.5 -18.5v-352zM863 588h-58
q-36 0 -61 -25.5t-25 -60.5v-469q0 -35 25 -60.5t61 -25.5h58q35 0 60.5 25.5t25.5 60.5v469q0 35 -25.5 60.5t-60.5 25.5zM889 33q0 -10 -8 -17.5t-18 -7.5h-58q-11 0 -18.5 7.5t-7.5 17.5v469q0 10 7.5 17.5t18.5 7.5h58q10 0 18 -7.5t8 -17.5v-469z" />
    <glyph glyph-name="uniE610" unicode="&#xe610;" 
d="M860 834h-720q-13 0 -21.5 -9t-8.5 -21t8.5 -21t21.5 -9h30v-805q0 -21 18.5 -30.5t36.5 0.5l243 137q32 18 64 0l243 -137q18 -10 36.5 -0.5t18.5 30.5v805h30q13 0 21.5 9t8.5 21t-8.5 21t-21.5 9zM625 256l-125 88l-124 -88l44 147l-121 93l152 3l49 146l50 -146
l152 -3l-121 -93z" />
    <glyph glyph-name="uniE612" unicode="&#xe612;" horiz-adv-x="1306" 
d="M1219 616q-16 21 -43 21h-112v49q0 24 -16.5 40.5t-40.5 16.5h-527q-4 0 -7 3l-71 71q-17 17 -40 17h-221q-24 0 -41 -17t-17 -40v-786q0 -23 17 -40t41 -17h876q18 0 33 11.5t20 28.5l159 594q7 26 -10 48v0zM141 787h221q4 0 7 -3l71 -71q17 -17 40 -17h527
q10 0 10 -10v-49h-711q-18 0 -33 -11t-19 -29l-123 -459v639q0 10 10 10z" />
    <glyph glyph-name="uniE613" unicode="&#xe613;" 
d="M0 173q0 -31 23 -54q22 -22 55 -23h612q33 0 72 16t61 39l179 178q22 23 22 55.5t-22 54.5l-179 178q-22 23 -61 39t-71 16h-613q-32 0 -55 -23q-22 -22 -23 -54v-422zM727 439q23 23 55 23t55 -23t23 -55t-23 -54.5t-55 -22.5t-54.5 22.5t-22.5 54.5t22 55z" />
    <glyph glyph-name="uniE615" unicode="&#xe615;" 
d="M616 -96v64h-448v832h448v64h-512v-960h512zM804 416h-444v-64h444l-173 -156q-10 -9 -11 -22.5t8 -23t22.5 -10.5t22.5 8l236 212q11 10 11 24t-11 24l-236 212q-9 8 -21 8q-14 0 -24 -10q-9 -10 -8 -23.5t11 -22.5z" />
    <glyph glyph-name="uniE616" unicode="&#xe616;" horiz-adv-x="1280" 
d="M1103 -66h-957q-35 0 -59.5 24.5t-24.5 59.5v732q0 35 24.5 59.5t59.5 24.5h957q35 0 59.5 -24.5t24.5 -59.5v-732q0 -35 -24.5 -59.5t-59.5 -24.5zM174 722v-676l262 262q8 8 19.5 8t20.5 -8l92 -93l507 507h-901zM371 440q-35 0 -59.5 25t-24.5 60t24.5 59.5t59.5 24.5
t60 -24.5t25 -59.5t-25 -60t-60 -25z" />
    <glyph glyph-name="uniE617" unicode="&#xe617;" 
d="M684 759q-99 0 -171 -67q-72 67 -171 67q-103 0 -176 -71.5t-73 -171.5q0 -52 23 -107.5t60 -103.5t82 -94t89.5 -82t82 -63.5t60 -42t23.5 -14.5q9 5 24 14.5t58.5 41t83 64.5t88 81.5t83.5 95t59 102.5t24 108q0 100 -73 171.5t-176 71.5z" />
    <glyph glyph-name="uniE618" unicode="&#xe618;" 
d="M512 896l142 -398h370l-313 -228l117 -398l-316 228l-316 -228l117 398l-313 228h370z" />
    <glyph glyph-name="uniE619" unicode="&#xe619;" 
d="M125.5 225q30.5 0 51 21.5t20.5 52.5q0 33 -20.5 54.5t-51 21.5t-51.5 -21.5t-21 -54.5q0 -31 21 -52.5t51.5 -21.5zM512.5 225q30.5 0 51 21.5t20.5 52.5q0 33 -20.5 54.5t-51 21.5t-51.5 -21.5t-21 -54.5q0 -31 21 -52.5t51.5 -21.5zM899.5 225q30.5 0 51 21.5
t20.5 52.5q0 33 -20.5 54.5t-51 21.5t-51.5 -21.5t-21 -54.5q0 -31 21 -52.5t51.5 -21.5z" />
    <glyph glyph-name="uniE61A" unicode="&#xe61a;" 
d="M990 22q-15 20 -62 32.5t-95.5 17.5t-93.5 19t-56 37q-18 35 -27 57t-13.5 35t-0.5 21t8 11.5t16 10t21 12.5q18 14 29 44t19 61t18 43q18 22 27 73.5t1 77.5q-4 15 -10.5 22.5t-11.5 8.5t-9 6t-5 16q-4 38 -1.5 67t-3.5 55.5t-24 42.5q-7 6 -30 29t-38.5 36t-43 25.5
t-54.5 13.5q-44 0 -95 -29q-25 3 -46 -0.5t-37 -10t-29 -20t-21.5 -25t-16 -31t-11 -32.5t-7 -34.5t-4.5 -32t-2.5 -30t-1.5 -24.5q-1 -11 -5 -16t-9 -6t-11.5 -8.5t-10.5 -22.5q-8 -26 1 -77.5t27 -73.5q10 -12 18 -43t19 -61t29 -44q8 -6 20.5 -12.5t16.5 -10t8 -11.5
t-0.5 -21t-13.5 -35t-27 -57q-11 -24 -56 -37.5t-93.5 -18.5t-95.5 -17.5t-62 -32.5t-23.5 -59t-9.5 -58t-1 -33h512h512q0 12 -1 30.5t-9.5 58.5t-23.5 61z" />
    <glyph glyph-name="uniE61B" unicode="&#xe61b;" 
d="M1024 816l-80 80l-432 -432l-432 432l-80 -80l432 -432l-432 -432l80 -80l432 432l432 -432l80 80l-432 432z" />
    <glyph glyph-name="uniE61C" unicode="&#xe61c;" 
d="M957 600v0q-2 7 -9 11q-1 2 -2 2q-7 4 -14 4h-842q-7 0 -14 -4l-2 -2q-7 -4 -9 -11v0q-2 -6 -2 -10v-579q0 -11 8 -19t19 -8h421h421q11 0 19 8t8 19v579q0 4 -2 10zM864 563l-353 -330l-353 330h706zM511 38h-394v490l376 -352q7 -7 18 -7t19 7l375 352v-490h-394z" />
    <glyph glyph-name="uniE61D" unicode="&#xe61d;" 
d="M512 896q-139 0 -257 -68.5t-186.5 -186.5t-68.5 -257q0 -104 39.5 -197.5t110.5 -164.5l-150 -150h512q139 0 257 68.5t186.5 186.5t68.5 257t-68.5 257t-186.5 186.5t-257 68.5zM341.5 327q-23.5 0 -40.5 16.5t-17 40.5t17 40.5t40.5 16.5t40 -16.5t16.5 -40.5
t-16.5 -40.5t-40 -16.5zM512 327q-24 0 -40.5 16.5t-16.5 40.5t16.5 40.5t40.5 16.5t40.5 -16.5t16.5 -40.5t-16.5 -40.5t-40.5 -16.5zM682.5 327q-23.5 0 -40 16.5t-16.5 40.5t16.5 40.5t40 16.5t40.5 -16.5t17 -40.5t-17 -40.5t-40.5 -16.5z" />
    <glyph glyph-name="uniE61E" unicode="&#xe61e;" 
d="M512 896l-512 -512h128v-512h256v192q0 53 37.5 90.5t90.5 37.5t90.5 -37.5t37.5 -90.5v-192h256v512h128z" />
    <glyph glyph-name="uniE61F" unicode="&#xe61f;" horiz-adv-x="1463" 
d="M1316 -66h-1222q-13 0 -22.5 9.5t-9.5 22.5v603l643 -321l643 321v-603q0 -13 -9.5 -22.5t-22.5 -9.5zM62 713v89q0 13 9.5 22.5t22.5 9.5h1222q13 0 22.5 -9.5t9.5 -22.5v-89l-643 -321z" />
    <glyph glyph-name="uniE620" unicode="&#xe620;" 
d="M512 -128l81 80l-375 375h806v114h-806l375 375l-81 80l-512 -512z" />
    <glyph glyph-name="uniE621" unicode="&#xe621;" horiz-adv-x="1025" 
d="M999 547l-284 -284l-81 81l263 264l-162 162l-264 -264l-81 81l284 285q24 24 60.5 24t61.5 -24l203 -203q25 -26 25 -61.5t-25 -60.5zM643 597l82 -81l-345 -344l-81 81zM127 161l162 -162l264 264l81 -82l-284 -284q-25 -25 -61 -25t-61 25l-203 203q-25 25 -25 61
t25 61l284 284l81 -81z" />
    <glyph glyph-name="uniE622" unicode="&#xe622;" 
d="M102 691v66q0 11 8 24t18 13h169l102 102h226l102 -102h169q10 0 18 -13t8 -24v-66h-820zM604 845h-184l-51 -51h286zM870 -114q0 -9 -6 -11.5t-19 -2.5h-666q-9 0 -13 0.5t-8 4t-4 9.5v754h716v-754zM461 486h-51v-409h51v409zM614 486h-51v-409h51v409z" />
    <glyph glyph-name="uniE623" unicode="&#xe623;" horiz-adv-x="1152" 
d="M832 512h-224v32q0 40 -28 68t-68 28h-128q-13 0 -22.5 9.5t-9.5 22.5t9.5 22.5t22.5 9.5h448q40 0 68 28t28 68t-28 68t-68 28h-256v-64h256q13 0 22.5 -9.5t9.5 -22.5t-9.5 -22.5t-22.5 -9.5h-448q-40 0 -68 -28t-28 -68t28 -68t68 -28h128q13 0 22.5 -9.5t9.5 -22.5
v-32h-224q-133 0 -226.5 -93.5t-93.5 -226.5t93.5 -226.5t226.5 -93.5h512q133 0 226.5 93.5t93.5 226.5t-93.5 226.5t-226.5 93.5zM320 32q-66 0 -113 47t-47 113t47 113t113 47t113 -47t47 -113t-47 -113t-113 -47zM768 32q-27 0 -45.5 18.5t-18.5 45.5t18.5 45.5
t45.5 18.5t45.5 -18.5t18.5 -45.5t-18.5 -45.5t-45.5 -18.5zM896 224q-27 0 -45.5 18.5t-18.5 45.5t18.5 45.5t45.5 18.5t45.5 -18.5t18.5 -45.5q0 -26 -18.5 -45t-45.5 -19z" />
    <glyph glyph-name="uniE624" unicode="&#xe624;" 
d="M762 234q-54 0 -96 -34l-257 154q3 15 3 30t-3 30l257 154q42 -34 96 -34q62 0 106 44t44 106t-44 106t-106 44t-106 -44t-44 -106q0 -15 3 -30l-257 -154q-42 34 -96 34q-62 0 -106 -44t-44 -106t44 -106t106 -44q54 0 96 34l257 -154q-3 -15 -3 -30q0 -62 44 -106
t106 -44t106 44t44 106t-44 106t-106 44zM762 759q31 0 53 -22t22 -53t-22 -53t-53 -22t-53 22t-22 53t22 53t53 22zM262 309q-31 0 -53 22t-22 53t22 53t53 22t53 -22t22 -53t-22 -53t-53 -22zM762 9q-31 0 -53 22t-22 53t22 53t53 22t53 -22t22 -53t-22 -53t-53 -22z" />
    <glyph glyph-name="uniE625" unicode="&#xe625;" 
d="M825 782v86q0 11 -8.5 19.5t-20.5 8.5h-568q-12 0 -20.5 -8.5t-8.5 -19.5v-86h-199v-227q0 -100 67.5 -173t165.5 -82q33 -65 91.5 -109t130.5 -58v-147l-114 -114h342l-114 114v147q72 14 130.5 58t91.5 109q98 9 165.5 82t67.5 173v227h-199zM114 555v113h85v-227
q0 -2 1 -17q-39 17 -62.5 52t-23.5 79zM910 555q0 -44 -23.5 -79t-62.5 -52v6q1 7 1 11v227h85v-113z" />
    <glyph glyph-name="uniE626" unicode="&#xe626;" 
d="M512 747q-111 0 -206.5 -50.5t-157.5 -136.5v75q0 17 -12.5 29.5t-29.5 12.5t-29.5 -12.5t-12.5 -29.5v-167q0 -18 12.5 -30t29.5 -12h182q17 0 29.5 12t12.5 29.5t-12.5 30t-29.5 12.5h-73q50 71 128 112t169 41q99 0 182.5 -48.5t132 -132t48.5 -182t-48.5 -182
t-132 -132t-182.5 -48.5q-126 0 -223.5 76.5t-128.5 194.5h-1q-4 13 -14.5 21t-24.5 8q-17 0 -29.5 -12.5t-12.5 -29.5q0 -4 2 -12q0 -1 0.5 -1.5t0.5 -1.5l1 -1v-1q40 -142 159 -233.5t271 -91.5q91 0 174 35.5t142.5 95t95 142.5t35.5 173.5t-35.5 173t-95 142.5
t-142.5 95.5t-174 35.5zM511.5 558q-17.5 0 -29.5 -12t-12 -29v-251q0 -18 12 -30t30 -12h182q17 0 29.5 12t12.5 29.5t-12.5 29.5t-29.5 12h-140v210q0 17 -12.5 29t-30 12z" />
    <glyph glyph-name="uniE627" unicode="&#xe627;" 
d="M512 300zM384 300q0 53 37.5 90.5t90.5 37.5t90.5 -37.5t37.5 -90.5t-37.5 -90.5t-90.5 -37.5t-90.5 37.5t-37.5 90.5zM288 300q0 54 25 100.5t68 73.5l-47 49q-19 -14 -35 -31q-75 -80 -75 -192t75 -192q16 -17 35 -31l47 49q-43 27 -68 73.5t-25 100.5zM736 300
q0 -54 -25 -100.5t-68 -73.5l47 -49q19 14 35 31q75 80 75 192t-75 192q-16 17 -35 31l-47 -49q43 -27 68 -73.5t25 -100.5zM128 300q0 82 34.5 153t94.5 119l-46 48q-18 -15 -35 -32q-53 -57 -82 -130q-30 -75 -30 -158t30 -158q29 -73 82 -130q17 -17 35 -32l46 48
q-60 48 -94.5 119t-34.5 153zM896 300q0 -82 -34.5 -153t-94.5 -119l46 -47q21 17 35 31q53 57 82 130q30 75 30 158t-30 158q-29 73 -82 130q-17 17 -35 32l-46 -48q60 -48 94.5 -119t34.5 -153z" />
    <glyph glyph-name="uniE628" unicode="&#xe628;" 
d="M924 575h-296v110q0 8 -6 14t-15 6h-193q-9 0 -15 -6t-6 -14v-110h-296q-14 0 -24 -10t-10 -25v-629q0 -14 10 -24.5t24 -10.5h827q14 0 24 10.5t10 24.5v629q0 15 -10 25t-24 10zM435 664h152v-89h-152v89zM304 534h413v-67h-413v67zM889 -55h-757v561h131v-60
q0 -8 6 -14t15 -6h454q8 0 14 6t6 14v60h131v-561zM812 233h-213q-9 0 -15 -6t-6 -15t6 -14.5t15 -5.5h213q9 0 15 5.5t6 14.5t-6 15t-15 6zM812 142h-213q-9 0 -15 -6t-6 -14.5t6 -15t15 -6.5h213q9 0 15 6.5t6 15t-6 14.5t-15 6zM578 303q0 -9 6 -15t15 -6h213q9 0 15 6
t6 15t-6 15t-15 6h-213q-9 0 -15 -6t-6 -15zM473 133q-16 16 -36 24l-4 2l3 3q38 38 38 91q0 54 -38 92t-92 38q-53 0 -91 -38t-38 -92q0 -53 38 -91l3 -3q-24 -9 -41 -26q-16 -16 -24 -36t-8 -42v-30q0 -9 6 -15t14 -6h282q9 0 14.5 6t5.5 15v30q0 22 -8 42t-24 36z
M282 316q25 25 62 25t62 -25q26 -26 26 -63q0 -36 -26 -61q-25 -26 -61.5 -26t-62.5 26q-26 25 -26 61q0 37 26 63zM464 46h-240v9q0 15 5 26q6 13 15 23q21 20 49 20h102q15 0 26 -5q14 -5 23 -15q9 -9 15 -23q5 -12 5 -26v-9z" />
    <glyph glyph-name="uniE629" unicode="&#xe629;" 
d="M964 527v-572q0 -10 -6.5 -16.5t-16.5 -6.5h-858q-10 0 -16.5 6.5t-6.5 16.5v858q0 10 6.5 16.5t16.5 6.5h596q10 0 17 7t7 17t-7 17t-17 7h-596q-29 0 -50 -21t-21 -50v-858q0 -29 21 -50t50 -21h858q29 0 50 21t21 50v572q0 10 -7 17t-17 7t-17 -7t-7 -17zM837 850
q14 14 33.5 14t33.5 -14l67 -67q14 -14 14 -33.5t-14 -33.5l-494 -495q-34 -33 -77 -53l-114 -51q-45 -18 -50 -13q-13 13 55 174q18 44 51 78zM804 784l101 -101l-42 -42l-101 101zM364 320l101 -101l-42 -41l-101 101z" />
    <glyph glyph-name="uniE62A" unicode="&#xe62a;" 
d="M709 -63q-93 0 -158.5 65t-65.5 158.5t65.5 159t159 65.5t158.5 -65.5t65 -158.5t-66.5 -158.5t-157.5 -65.5zM882 134v49h-345v-49h345zM610 497q-2 -7 -4 -21t-5 -20q-76 -55 -121 -139t-45 -181q0 -70 29 -150h-336q-15 0 -26 13t-11 29v0q0 6 0.5 17t6 40.5t14.5 55
t29.5 54t48.5 45.5q33 19 56.5 22.5t60.5 18.5l74 33v79q-4 3 -9.5 9.5t-17 32t-14.5 58.5q-5 -1 -8.5 0t-6 4t-4.5 5.5t-4 8t-2.5 8t-2 8.5t-1.5 7q0 4 -1.5 14.5t-2 19.5t0 18t4.5 13t11 2q-8 83 -8 95q3 50 47.5 90t110.5 43q74 -3 112 -41t45 -92q0 -12 -8 -87
q7 1 11 -3.5t4.5 -13.5t0 -17.5t-2 -18.5t-1.5 -13q0 -23 -5 -36t-19 -10zM610 497z" />
    <glyph glyph-name="uniE62B" unicode="&#xe62b;" 
d="M361 0q-15 0 -25 12q-12 14 -7 39l19 102q1 8 -3 13t-11 5h-194q-26 0 -43 18t-17 46v490q0 26 16.5 41.5t43.5 15.5h770q29 0 47 -16t18 -41v-490q0 -27 -18.5 -45.5t-46.5 -18.5h-254q-14 0 -34.5 -6.5t-32.5 -15.5l-199 -138q-15 -11 -29 -11v0z" />
    <glyph glyph-name="uniE62C" unicode="&#xe62c;" 
d="M885 473h-238q19 69 25.5 126.5t2.5 93.5t-14.5 63.5t-23 41t-25.5 21.5t-20 10t-9 2q-22 0 -35.5 -8.5t-16 -18.5t-3.5 -21.5t-2 -12.5q0 -47 -18 -94.5t-44 -82.5t-52 -63t-44 -43l-19 -14v-472q0 -22 17.5 -37t37 -21t34.5 -6h357q10 0 19.5 9t16.5 22t13 26t9 22
l3 10q40 133 62 230.5t24 128.5l3 31q0 17 -6.5 29.5t-15 17.5t-17.5 7.5t-15 2.5h-6v0zM252 473h-143q-13 0 -20.5 -7.5t-8.5 -14.5l-1 -7l30 -476q0 -14 7.5 -21.5t15.5 -8.5l7 -1h123q12 0 18.5 5t6.5 10l1 5v480q0 16 -9 25t-18 10l-9 1v0zM252 473z" />
    <glyph glyph-name="uniE62F" unicode="&#xe62f;" 
d="M113.5 -7q-20.5 0 -34.5 14.5t-14 34.5v413q0 20 14 34.5t34.5 14.5t34.5 -14.5t14 -34.5v-413q0 -20 -14 -34.5t-34.5 -14.5zM704 -59q-13 0 -26 2l-404 63q-17 3 -29 16.5t-12 31.5v410q0 18 11.5 32.5t28.5 17.5q14 2 30 6.5t44.5 17.5t50 30.5t39.5 49t21 69.5
q0 57 42 98.5t101 41.5q60 0 102 -42t42 -102q1 -5 0.5 -23.5t-9.5 -61.5t-27 -85h78q11 0 24 -2t36 -7.5t45.5 -21t38.5 -38.5q55 -78 5 -214l-64 -178q-4 -16 -15 -33t-30.5 -35.5t-51.5 -30.5t-71 -12zM331 96l360 -56q6 -1 13 -1q18 0 32 4.5t21.5 10t13 12.5t7 10
t1.5 5l65 182q32 88 7 125q-8 12 -25 19t-25.5 7.5t-13.5 0.5h-163q-30 0 -43.5 27t4.5 51q19 26 32.5 55t18.5 51t8.5 42t2.5 28t0 11q0 21 -13 35t-33 14q-19 0 -32 -13.5t-13 -32.5q-4 -52 -25 -96.5t-53 -75t-69 -51.5t-78 -33v-331z" />
    <glyph glyph-name="uniE630" unicode="&#xe630;" 
d="M608 532q-1 -18 -2 -29q-2 -13 -3 -27h-2q-20 66 -101 66q-89 0 -151.5 -79t-62.5 -204q0 -96 45 -151t119 -55q100 0 137 108h4q2 -50 35.5 -79t85.5 -29q105 0 176.5 85t71.5 226q0 172 -118.5 278t-310.5 106q-206 0 -336.5 -135t-130.5 -334q0 -194 122.5 -310.5
t319.5 -116.5q144 0 235 40v100q-99 -47 -221 -47q-157 0 -248.5 89t-91.5 243q0 158 102 268t255 110q144 0 225.5 -83t81.5 -214q0 -93 -28.5 -152t-73.5 -59q-44 0 -44 80q0 68 24 305h-114zM436 394q32 56 81 56q34 0 55 -25t21 -72q0 -93 -30 -150.5t-82 -57.5
q-36 0 -56.5 31t-20.5 84q0 78 32 134z" />
    <glyph glyph-name="uniE631" unicode="&#xe631;" 
d="M82 328h860q8 0 14 -6t6 -14v-40q0 -8 -6 -14t-14 -6h-860q-8 0 -14 6t-6 14v40q0 8 6 14t14 6zM472 -142v860q0 8 6 14t14 6h40q8 0 14 -6t6 -14v-860q0 -8 -6 -14t-14 -6h-40q-8 0 -14 6t-6 14z" />
    <glyph glyph-name="uniE632" unicode="&#xe632;" 
d="M923 785q-7 5 -16 4h-2h-790h-2h-1h-1h-1q0 -1 -2 -1v0q-1 0 -1.5 -0.5t-1 -0.5t-1.5 -1q-1 0 -1.5 -0.5t-1.5 -0.5v-1q-1 0 -2 -1l-1 -1q-1 -1 -1 -1.5t-1 -0.5q-1 -1 -1 -1.5t-0.5 -1t-0.5 -1.5q-1 -1 -1 -2l-1 -1v-1v-1q0 -1 -1 -1v-2v-2v-1v-1v-1q0 -1 1 -2v-1v-1v-1
v-1l1 -1l1 -1v-1v-1l1 -1v-1l296 -416v-243q0 -15 14 -22l194 -89h1q0 -1 1 -1h1q1 0 2 -1h2h3v0h2h1h1h1l1 1h1h2v1q1 0 2 1v0h2v1q1 1 2 1l2 2q0 1 1 1v1l1 1l1 1l1 1v1v0v1l1 1v1q0 1 0.5 1.5t0.5 1.5v1v1v1l1 1v1v332l296 416q5 8 3.5 18t-9.5 16zM439 343v1v1v1v1
q0 1 -0.5 1.5t-0.5 1.5v1l-1 1v1l-1 1v1l-1 1l-274 385h702l-274 -385q0 -1 -1 -2v0q0 -1 -1 -2q0 -1 -1 -2v0q0 -1 -0.5 -1.5l-0.5 -0.5v-2v-1v-1v-1v-1v-302l-146 67v235v1z" />
    <glyph glyph-name="uniE633" unicode="&#xe633;" 
d="M114 -128v569h114v171q0 117 80.5 200.5t199.5 83.5h2h3h3h2q119 0 199 -83.5t80 -200.5v-57q0 -24 -17 -40.5t-40.5 -16.5t-40 16.5t-16.5 40.5v57q0 58 -53 115t-112 57h-3h-7q-59 0 -112.5 -57t-53.5 -115v-171h284h57h114h56h57v-569h-796zM569 214q0 23 -16.5 39.5
t-40 16.5t-40.5 -16.5t-17 -39.5v-114q0 -24 17 -40.5t40.5 -16.5t40 16.5t16.5 40.5v114z" />
    <glyph glyph-name="uniE634" unicode="&#xe634;" 
d="M975 386q0 25 -20 39l-406 297q-13 10 -29 10t-29 -10l-406 -297q-8 -5 -13 -15q-3 -2 -5 -5q-3 -6 -1 -13q0 -1 -0.5 -3t-0.5 -3v-493q0 -20 14.5 -34.5t34.5 -14.5h812q20 0 34.5 14.5t14.5 34.5v493zM513 693q3 2 7 2t7 -2l399 -292l-406 -232l-407 232zM934.5 -115.5
q-3.5 -3.5 -8.5 -3.5h-812q-5 0 -8.5 3.5t-3.5 8.5v472l409 -233q4 -2 9 -2t9 2l409 234v-473q0 -5 -3.5 -8.5z" />
    <glyph glyph-name="uniE635" unicode="&#xe635;" 
d="M962 400l-895 401q-10 3 -18.5 -3t-7.5 -17l35 -331l588 -68l-588 -67l-35 -331q-1 -10 8 -17q5 -4 11 -4q4 0 7 2l895 400q13 5 13 18t-13 17zM962 400z" />
    <glyph glyph-name="uniE636" unicode="&#xe636;" 
d="M586 730q15 0 27 -10.5t16 -26.5l3 -13q5 -29 5 -57q0 -69 -14 -110l-24 -72h76q180 -1 194 -1q23 -1 33 -18q8 -14 7 -31q-3 -21 -35 -167t-41 -180q-6 -10 -15 -16q-10 -7 -15 -7h-443l1 401q81 25 133 93.5t55 153.5v3v2v1v5q0 20 9.5 35t27.5 15zM219 409v-389h-74
v389h74zM586 785q-41 0 -66.5 -30.5t-25.5 -74.5v-10q-2 -79 -56.5 -137t-131.5 -67v-500h10v0h487q21 0 45 16t36 42q2 2 40.5 175t39.5 187q2 34 -15 64q-25 42 -78 44q-7 2 -196 2q16 49 16 127q0 41 -8 81h-1q-8 35 -34.5 58t-61.5 23zM235 464h-106q-16 0 -27 -11.5
t-11 -28.5v-419q0 -16 11 -27.5t27 -11.5h106q16 0 27 11.5t11 27.5v419q0 17 -11 28.5t-27 11.5zM316 -34v0v0v0v0z" />
    <glyph glyph-name="uniE638" unicode="&#xe638;" 
d="M512 864q-97 0 -185.5 -38t-153 -102t-102.5 -152.5t-38 -186t38 -186t102.5 -152.5t153 -102t185.5 -38t185.5 38t153 102t102.5 152.5t38 186t-38 186t-102.5 152.5t-153 102t-185.5 38zM756 77q-108 -85 -244 -85q-107 0 -197.5 53t-143.5 143.5t-53 197.5
q0 138 87 247zM276 700q104 79 236 79q107 0 197.5 -52.5t143.5 -143.5t53 -198q0 -133 -82 -239z" />
    <glyph glyph-name="uniE639" unicode="&#xe639;" 
d="M97 555q33 80 94 141t141 95q82 34 172 34q91 0 175 -36q79 -34 140 -96l134 134l4 -346l-345 5l136 136q-100 103 -244 103q-93 0 -171.5 -46t-124.5 -124.5t-46 -171.5t46 -171.5t124.5 -124.5t171.5 -46q144 0 244 103q15 15 36 15.5t35.5 -14t15 -35.5t-14.5 -36
q-61 -63 -141 -97q-84 -36 -175 -36q-90 0 -172 35q-80 33 -141 94.5t-94 140.5q-35 82 -35 172t35 172z" />
    <glyph glyph-name="uniE63A" unicode="&#xe63a;" 
d="M512 628q-75 0 -148.5 -28.5t-123 -68t-80.5 -80t-31 -67.5t31 -67.5t80.5 -80t123 -68t148.5 -28.5t148.5 28.5t123 68t80.5 80t31 67.5t-31 67.5t-80.5 80t-123 68t-148.5 28.5zM512 210q-72 0 -123 51t-51 123t51 123t123 51t123 -51t51 -123t-51 -123t-123 -51z
M512 505q-50 0 -85.5 -35.5t-35.5 -85.5t35.5 -85.5t85.5 -35.5t85.5 35.5t35.5 85.5t-35.5 85.5t-85.5 35.5z" />
    <glyph glyph-name="uniE63B" unicode="&#xe63b;" 
d="M992 382v-1v-1v0v-2q-2 -11 -10 -20q-12 -14 -33 -35q-97 -98 -203 -154q-80 -42 -153 -55q-89 -16 -175 2q-65 15 -132 49l1 1l120 79q47 -33 105 -33q75 0 127.5 52.5t52.5 127.5q0 19 -4 38l158 105q16 -12 31 -25q65 -53 104 -100q9 -8 10 -20h1v-2v-1v-1v-2v-2z
M512 302q-8 0 -17 1l105 69q-7 -30 -31.5 -50t-56.5 -20zM907 620l-780 -510v0q-6 -3 -12 -3q-10 0 -16.5 6.5t-6.5 15.5q0 12 10 19l780 510v0q6 3 12 3q10 0 16.5 -6.5t6.5 -15.5q0 -12 -10 -19zM512 482q12 0 25 -4l-114 -76q4 34 29.5 57t59.5 23zM621 534
q-48 37 -109 37q-75 0 -127.5 -52.5t-52.5 -127.5q0 -22 6 -45l-156 -105l-8 -5l-28 22q-65 53 -104 100q-21 26 0 52q11 14 32 35q97 98 204 154q80 42 152 55q89 16 176 -2q61 -14 124 -45l-8 -6z" />
    <glyph glyph-name="uniE63D" unicode="&#xe63d;" 
d="M307 97h71h72q10 10 499 485q14 15 22 34l1 1v1q15 38 -1 74t-53 52t-76 1q-20 -7 -21 -8q-19 -19 -515 -501q0 -65 1 -139zM1040 363q0 25 -19 43.5t-45.5 18.5t-45.5 -18.5t-19 -43.5v-369q0 -25 -18 -44q-19 -18 -45 -18h-653q-26 0 -45 18.5t-19 44.5v630q0 26 19 44
t45 18h381q27 0 45.5 18.5t18.5 44t-18.5 44t-45.5 18.5h-508q-27 0 -46 -18.5t-19 -43.5v-880q0 -26 19 -44t46 -18h907q27 0 46 18t19 44v349v144z" />
    <glyph glyph-name="uniE63E" unicode="&#xe63e;" 
d="M958 483h-80q-12 43 -34 80l58 58q19 20 19 47.5t-19 46.5l-47 47q-19 20 -47 20t-47 -20l-59 -59q-34 19 -75 31v80q0 27 -19.5 46.5t-46.5 19.5h-66q-27 0 -46.5 -19.5t-19.5 -46.5v-80q-42 -12 -78 -32l-60 60q-20 20 -47.5 20t-46.5 -20l-47 -47q-20 -19 -20 -46.5
t20 -47.5l60 -60q-20 -36 -32 -78h-80q-27 0 -46.5 -19.5t-19.5 -46.5v-66q0 -27 19.5 -46.5t46.5 -19.5h80q12 -41 31 -75l-59 -59q-20 -19 -20 -47t20 -47l47 -47q19 -19 46.5 -19t47.5 19l58 58q38 -22 80 -34v-80q0 -27 19.5 -46.5t46.5 -19.5h66q27 0 46.5 19.5
t19.5 46.5v80q41 12 78 32l56 -56q19 -19 46.5 -19t47.5 19l47 47q19 19 19 47t-19 47l-56 56q20 36 32 78h80q27 0 46.5 19.5t19.5 46.5v66q0 27 -19.5 46.5t-46.5 19.5zM528 186q-82 0 -140 58t-58 140t58 140t140 58t140 -58t58 -140t-58 -140t-140 -58z" />
    <glyph glyph-name="uniE63F" unicode="&#xe63f;" 
d="M836 862h-618q-60 0 -102.5 -45t-42.5 -106v-401q0 -59 41 -97t102 -38h58v-171l200 171h372q60 0 101.5 38t41.5 97v401q0 60 -46.5 105.5t-106.5 45.5zM931 310q0 -38 -25 -57.5t-60 -19.5h-393l-122 -105v105h-115q-35 0 -60.5 19.5t-25.5 57.5v401q0 37 26.5 65.5
t61.5 28.5h618q37 0 66 -29t29 -65v-401zM245 519q0 -24 16.5 -41t40.5 -17t40.5 17t16.5 41v0q0 23 -16.5 40t-40.5 17t-40.5 -17t-16.5 -40zM474 519q0 -24 16.5 -41t40.5 -17t40.5 17t16.5 41q0 23 -16.5 40t-40.5 17t-40.5 -17t-16.5 -40zM703 519q0 -24 16.5 -41
t40 -17t40.5 17t17 41v0q0 23 -17 40t-40.5 17t-40 -17t-16.5 -40z" />
    <glyph glyph-name="uniE640" unicode="&#xe640;" 
d="M682 791h-531v-811h6l357 168l356 -168h6v811h-194zM819 67l-281 132q-12 6 -24.5 6t-24.5 -6l-281 -132v667h474l137 1v-668zM819 67zM674 524l-68 10q-7 1 -15 7t-11 12l-32 66q-12 25 -34.5 25t-34.5 -25l-32 -66q-3 -6 -11 -12t-15 -7l-68 -10q-27 -4 -34.5 -25.5
t12.5 -41.5l50 -51q5 -4 8 -14t2 -17l-12 -73q-4 -21 8 -34q19 -23 49 -6l62 33q6 3 15.5 3t15.5 -3l62 -33q11 -6 23 -6q16 0 26 12q12 13 8 34l-12 73q-1 7 2 17t8 14l50 51q20 20 12.5 41.5t-34.5 25.5zM612 440q-13 -13 -19.5 -34t-3.5 -39l9 -54l-46 24q-16 9 -38.5 9
t-38.5 -9l-46 -25l9 55q3 18 -3.5 39t-19.5 34l-39 39l52 8q19 3 36.5 16t25.5 30l24 48l23 -48q8 -17 25.5 -30t36.5 -16l52 -8zM612 440z" />
    <glyph glyph-name="uniE641" unicode="&#xe641;" 
d="M587 -2.5q0 30.5 -21.5 51t-52.5 20.5q-33 0 -54.5 -20.5t-21.5 -51t21.5 -51.5t54.5 -21q31 0 52.5 21t21.5 51.5zM587 384.5q0 30.5 -21.5 51t-52.5 20.5q-33 0 -54.5 -20.5t-21.5 -51t21.5 -51.5t54.5 -21q31 0 52.5 21t21.5 51.5zM587 771.5q0 30.5 -21.5 51
t-52.5 20.5q-33 0 -54.5 -20.5t-21.5 -51t21.5 -51.5t54.5 -21q31 0 52.5 21t21.5 51.5z" />
    <glyph glyph-name="uniE642" unicode="&#xe642;" 
d="M512 864q-98 0 -186.5 -38t-153 -102.5t-102.5 -153t-38 -186.5t37 -185.5t104 -153.5l-141 -141h480q98 0 186.5 38t153 102.5t102.5 153t38 186.5t-38 186.5t-102.5 153t-153 102.5t-186.5 38zM352 331q-22 0 -37.5 15.5t-15.5 37.5t15.5 37.5t37.5 15.5t37.5 -15.5
t15.5 -37.5t-15.5 -37.5t-37.5 -15.5zM512 331q-22 0 -37.5 15.5t-15.5 37.5t15.5 37.5t37.5 15.5t37.5 -15.5t15.5 -37.5t-15.5 -37.5t-37.5 -15.5zM672 331q-22 0 -37.5 15.5t-15.5 37.5t15.5 37.5t37.5 15.5t37.5 -15.5t15.5 -37.5t-15.5 -37.5t-37.5 -15.5z" />
  </font>
</defs>
</svg>
